<?xml version="1.0" encoding="iso-8859-1"?>
<!-- Uploaded to: SVG Repo, www.svgrepo.com, Generator: SVG Repo Mixer Tools -->
<svg height="800px" width="800px" version="1.1" id="Layer_1" xmlns="http://www.w3.org/2000/svg" xmlns:xlink="http://www.w3.org/1999/xlink" 
	 viewBox="0 0 512 512" xml:space="preserve">
<g>
	<path style="fill:#FF9900;" d="M423.217,154.689c-9.024,0-16.34-7.316-16.34-16.34v-38.128c0-9.024,7.316-16.34,16.34-16.34
		s16.34,7.316,16.34,16.34v38.128C439.557,147.373,432.241,154.689,423.217,154.689z"/>
	<path style="fill:#FF9900;" d="M423.217,512c-9.024,0-16.34-7.316-16.34-16.34v-38.128c0-9.024,7.316-16.34,16.34-16.34
		s16.34,7.316,16.34,16.34v38.128C439.557,504.684,432.241,512,423.217,512z"/>
	<path style="fill:#FF9900;" d="M423.217,394.349c-9.024,0-16.34-7.316-16.34-16.34v-38.128c0-9.024,7.316-16.34,16.34-16.34
		s16.34,7.316,16.34,16.34v38.128C439.557,387.033,432.241,394.349,423.217,394.349z"/>
	<path style="fill:#FF9900;" d="M423.217,277.787c-9.024,0-16.34-7.316-16.34-16.34v-38.128c0-9.024,7.316-16.34,16.34-16.34
		s16.34,7.316,16.34,16.34v38.128C439.557,270.471,432.241,277.787,423.217,277.787z"/>
	<path style="fill:#FF9900;" d="M88.783,512c-9.024,0-16.34-7.316-16.34-16.34v-38.128c0-9.024,7.316-16.34,16.34-16.34
		s16.34,7.316,16.34,16.34v38.128C105.123,504.684,97.807,512,88.783,512z"/>
	<path style="fill:#FF9900;" d="M88.783,418.315c-9.024,0-16.34-7.316-16.34-16.34v-38.128c0-9.024,7.316-16.34,16.34-16.34
		s16.34,7.316,16.34,16.34v38.128C105.123,410.999,97.807,418.315,88.783,418.315z"/>
	<path style="fill:#FF9900;" d="M256,394.349c-9.024,0-16.34-7.316-16.34-16.34v-38.128c0-9.024,7.316-16.34,16.34-16.34
		c9.024,0,16.34,7.316,16.34,16.34v38.128C272.34,387.033,265.024,394.349,256,394.349z"/>
	<path style="fill:#FF9900;" d="M256,512c-9.024,0-16.34-7.316-16.34-16.34v-38.128c0-9.024,7.316-16.34,16.34-16.34
		c9.024,0,16.34,7.316,16.34,16.34v38.128C272.34,504.684,265.024,512,256,512z"/>
	<path style="fill:#FF9900;" d="M256,286.502c-9.024,0-16.34-7.316-16.34-16.34v-38.128c0-9.024,7.316-16.34,16.34-16.34
		c9.024,0,16.34,7.316,16.34,16.34v38.128C272.34,279.186,265.024,286.502,256,286.502z"/>
</g>
<g>
	<path style="fill:#FF4F19;" d="M272.34,232.034v38.128c0,9.02-7.321,16.34-16.34,16.34v-70.809
		C265.02,215.694,272.34,223.014,272.34,232.034z"/>
	<path style="fill:#FF4F19;" d="M439.557,100.221v38.128c0,9.02-7.321,16.34-16.34,16.34V83.881
		C432.237,83.881,439.557,91.201,439.557,100.221z"/>
	<path style="fill:#FF4F19;" d="M439.557,223.319v38.128c0,9.02-7.321,16.34-16.34,16.34v-70.809
		C432.237,206.979,439.557,214.299,439.557,223.319z"/>
	<path style="fill:#FF4F19;" d="M439.557,339.881v38.128c0,9.02-7.321,16.34-16.34,16.34V323.54
		C432.237,323.54,439.557,330.861,439.557,339.881z"/>
	<path style="fill:#FF4F19;" d="M439.557,457.532v38.128c0,9.02-7.321,16.34-16.34,16.34v-70.809
		C432.237,441.191,439.557,448.512,439.557,457.532z"/>
	<path style="fill:#FF4F19;" d="M272.34,339.881v38.128c0,9.02-7.321,16.34-16.34,16.34V323.54
		C265.02,323.54,272.34,330.861,272.34,339.881z"/>
	<path style="fill:#FF4F19;" d="M105.123,363.847v38.128c0,9.02-7.321,16.34-16.34,16.34v-70.809
		C97.803,347.506,105.123,354.827,105.123,363.847z"/>
	<path style="fill:#FF4F19;" d="M272.34,457.532v38.128c0,9.02-7.321,16.34-16.34,16.34v-70.809
		C265.02,441.191,272.34,448.512,272.34,457.532z"/>
	<path style="fill:#FF4F19;" d="M105.123,457.532v38.128c0,9.02-7.321,16.34-16.34,16.34v-70.809
		C97.803,441.191,105.123,448.512,105.123,457.532z"/>
</g>
<path style="fill:#A7A9AC;" d="M423.217,512H88.783c-9.024,0-16.34-7.316-16.34-16.34c0-9.024,7.316-16.34,16.34-16.34h334.434
	c9.024,0,16.34,7.316,16.34,16.34C439.557,504.684,432.241,512,423.217,512z"/>
<g>
	<path style="fill:#FFDB2D;" d="M88.783,380.187c-32.136,0-58.281-26.145-58.281-58.281s26.145-58.281,58.281-58.281
		s58.281,26.145,58.281,58.281S120.919,380.187,88.783,380.187z"/>
	<path style="fill:#FFDB2D;" d="M256,248.374c-32.136,0-58.281-26.145-58.281-58.281s26.145-58.281,58.281-58.281
		s58.281,26.145,58.281,58.281S288.136,248.374,256,248.374z"/>
	<path style="fill:#FFDB2D;" d="M423.217,116.562c-32.136,0-58.281-26.145-58.281-58.281S391.081,0,423.217,0
		s58.281,26.145,58.281,58.281S455.353,116.562,423.217,116.562z"/>
</g>
<g>
	<path style="fill:#FF9900;" d="M256,131.813v116.562c32.136,0,58.281-26.145,58.281-58.281S288.136,131.813,256,131.813z"/>
	<path style="fill:#FF9900;" d="M423.217,0v116.562c32.136,0,58.281-26.145,58.281-58.281S455.353,0,423.217,0z"/>
	<path style="fill:#FF9900;" d="M88.783,263.626v116.562c32.136,0,58.281-26.145,58.281-58.281S120.919,263.626,88.783,263.626z"/>
</g>
<path style="fill:#808285;" d="M423.217,479.319H256V512h167.217c9.024,0,16.34-7.316,16.34-16.34
	C439.557,486.635,432.241,479.319,423.217,479.319z"/>
</svg>